<?xml version="1.0" encoding="utf-8"?>
<!-- Generator: Adobe Illustrator 24.2.0, SVG Export Plug-In . SVG Version: 6.00 Build 0)  -->
<svg version="1.1" id="Layer_1" xmlns="http://www.w3.org/2000/svg" xmlns:xlink="http://www.w3.org/1999/xlink" x="0px" y="0px"
	 viewBox="0 0 500 500" style="enable-background:new 0 0 500 500;" xml:space="preserve">
<style type="text/css">
	.st0{fill:#E81D75;stroke:#E81D75;stroke-width:5;stroke-miterlimit:10;}
</style>
<path class="st0" d="M450.6,100.8c-25.6-26.1-59.8-40.5-96.4-40.7c-36.5-0.2-71,13.9-96.8,39.8l-8.5,8.5c-1.1,1.1-2.5,1.7-4.1,1.7
	c-1.5,0-3-0.6-4.1-1.7l-9.7-9.7c-25.6-25.6-59.8-39.8-96.1-39.8c-0.1,0-0.1,0-0.2,0c-34.8,0-67.6,13-92.8,36.7l-0.1-0.1l-3.4,3.4
	c0,0,0,0,0,0c0,0,0,0,0,0l-1.4,1.4v0.1c-16.8,17.5-26,40.4-26,64.7c0,25,9.7,48.5,27.4,66.2l94,94c18.6,18.6,43.1,27.9,67.6,27.9
	c23.5,0,46.8-8.6,64.7-26c18.1-17.6,28.2-41.2,28.4-66.5c0.2-25.3-9.5-49.1-27.4-66.9l-88.6-88.6c-2.7-2.7-7.1-2.7-9.8,0
	c-2.7,2.7-2.7,7.1,0,9.8l87.7,87.7c31.1,31.1,31.9,81.7,1.8,112.8c-15,15.4-35.1,24-56.6,24.2c-0.2,0-0.4,0-0.6,0
	c-21.3,0-41.3-8.3-56.4-23.3l-95-95c-31.1-31.1-31.1-81.6,0-112.7l0.2-0.2l0,0c23-23,53.7-35.7,86.3-35.7
	c32.6,0,63.3,12.7,86.3,35.7l9.7,9.7c3.7,3.7,8.6,5.8,13.9,5.8c5.3,0,10.2-2,13.9-5.8l7.3-7.3c47.8-47.8,125.4-48.7,172.9-2
	c23.4,23,36.4,53.7,36.6,86.6c0.2,32.9-12.5,63.7-35.7,86.9L330.5,391.6c-23,23-53.7,35.7-86.3,35.7s-63.3-12.7-86.3-35.7
	c-3.2-3.2-6.3-6.6-9.2-10.3l-0.2-0.2l-96.1-96.1c-1.3-1.3-3.1-2-4.9-2c-1.9,0-3.6,0.7-4.9,2c-2.7,2.7-2.7,7.1,0,9.8l95.6,95.6
	c3.1,3.9,6.4,7.6,9.9,11.1c25.6,25.6,59.8,39.8,96.1,39.8c36.4,0,70.5-14.1,96.1-39.8l108.1-108.1
	C501.6,240.1,502.6,153.8,450.6,100.8z"/>
</svg>
